<?xml version="1.0" standalone="no"?>
<!DOCTYPE svg PUBLIC "-//W3C//DTD SVG 20010904//EN"
 "http://www.w3.org/TR/2001/REC-SVG-20010904/DTD/svg10.dtd">
<svg version="1.0" xmlns="http://www.w3.org/2000/svg"
 width="632.000000pt" height="632.000000pt" viewBox="0 0 632.000000 632.000000"
 preserveAspectRatio="xMidYMid meet">
<metadata>
Created by potrace 1.14, written by Peter Selinger 2001-2017
</metadata>
<g transform="translate(0.000000,632.000000) scale(0.100000,-0.100000)"
fill="#000000" stroke="none">
<path d="M3346 6311 c-3 -4 -24 -11 -46 -15 -22 -3 -40 -11 -40 -16 0 -6 -6
-10 -13 -10 -7 0 -37 -11 -65 -25 -29 -14 -63 -25 -76 -25 -14 0 -28 -4 -31
-10 -8 -12 -302 -14 -309 -1 -3 4 -32 11 -65 14 -32 4 -82 16 -110 27 -42 16
-75 20 -171 20 -107 0 -125 -3 -182 -27 -35 -15 -65 -30 -68 -33 -3 -3 -18
-11 -33 -18 -15 -6 -30 -19 -33 -27 -4 -8 -10 -15 -15 -15 -11 0 -89 -77 -89
-88 0 -4 -9 -14 -20 -22 -11 -8 -20 -23 -20 -33 0 -9 -7 -20 -15 -23 -8 -4
-15 -15 -15 -27 0 -11 -7 -28 -15 -37 -9 -10 -19 -41 -24 -69 -5 -29 -13 -57
-20 -64 -14 -14 -16 -457 -1 -457 5 0 15 -20 21 -45 6 -24 17 -50 25 -56 8 -6
14 -18 14 -27 0 -23 120 -132 146 -132 12 0 27 -7 34 -15 7 -8 27 -15 45 -15
19 0 39 -8 49 -19 16 -17 16 -22 3 -48 -8 -15 -26 -40 -41 -55 -24 -27 -29
-28 -119 -28 -72 0 -98 4 -107 15 -9 11 -33 15 -85 15 -52 0 -76 4 -85 15 -18
21 -208 21 -236 0 -10 -8 -38 -15 -61 -15 -23 0 -45 -5 -48 -10 -4 -6 -21 -17
-38 -26 -61 -28 -87 -45 -87 -55 0 -5 -5 -9 -12 -9 -16 0 -178 -169 -178 -185
0 -3 -5 -11 -10 -18 -25 -30 -60 -89 -60 -102 0 -8 -6 -18 -13 -22 -13 -9 -57
-92 -57 -109 0 -6 -7 -17 -15 -24 -8 -7 -15 -23 -15 -37 0 -13 -9 -33 -20 -45
-11 -12 -20 -32 -20 -44 0 -12 -7 -27 -15 -34 -9 -7 -15 -29 -15 -52 0 -25 -5
-41 -15 -44 -8 -4 -15 -16 -15 -28 0 -12 -9 -39 -20 -61 -11 -22 -20 -52 -20
-67 0 -15 -7 -45 -15 -65 -16 -42 -41 -133 -57 -203 -5 -25 -13 -54 -18 -65
-5 -11 -16 -58 -24 -104 -9 -46 -19 -88 -23 -94 -3 -6 -10 -40 -14 -76 -5 -36
-15 -100 -24 -141 -22 -104 -32 -449 -15 -521 7 -30 18 -64 26 -76 8 -12 14
-31 14 -41 0 -11 11 -28 25 -38 14 -10 25 -24 25 -30 0 -16 86 -104 102 -104
7 0 19 -9 26 -20 7 -11 19 -20 27 -20 8 0 15 -7 15 -15 0 -8 7 -15 15 -15 9 0
18 -7 21 -15 4 -8 12 -15 20 -15 8 0 14 -4 14 -10 0 -5 5 -10 11 -10 6 0 17
-6 24 -12 30 -27 44 -38 50 -38 3 0 17 -11 31 -25 14 -14 29 -25 34 -25 6 0
27 -16 47 -35 20 -19 43 -35 49 -35 7 0 14 -3 16 -7 4 -9 74 -63 82 -63 3 0
17 -11 32 -25 14 -13 39 -30 55 -37 16 -7 29 -19 29 -25 0 -7 6 -13 13 -13 23
-1 107 -125 107 -160 0 -23 -24 -69 -55 -105 -15 -16 -29 -42 -32 -57 -3 -15
-12 -33 -19 -39 -9 -7 -14 -33 -14 -71 0 -36 -6 -68 -15 -82 -9 -13 -18 -54
-22 -92 -3 -38 -12 -81 -19 -96 -18 -35 -18 -157 0 -194 8 -16 17 -55 21 -86
3 -31 13 -62 21 -69 8 -6 14 -27 14 -45 0 -21 5 -34 13 -34 7 0 18 -12 24 -28
16 -37 35 -65 51 -75 6 -4 12 -14 12 -21 0 -17 143 -162 208 -211 28 -21 52
-43 52 -47 0 -4 7 -8 15 -8 8 0 15 -4 15 -9 0 -5 15 -15 34 -21 19 -6 37 -17
40 -25 3 -9 18 -15 36 -15 20 0 30 -5 30 -15 0 -8 6 -15 13 -15 6 0 23 -9 37
-20 14 -11 35 -20 46 -20 12 0 24 -6 27 -14 3 -7 21 -16 40 -20 19 -4 40 -13
47 -21 7 -8 22 -15 34 -15 12 0 31 -7 42 -15 10 -8 31 -15 47 -15 15 0 27 -4
27 -9 0 -4 26 -16 58 -25 31 -10 66 -21 77 -26 37 -16 230 -60 261 -60 16 0
34 -4 40 -9 24 -25 198 -36 539 -36 334 1 479 10 509 34 6 5 25 11 41 14 32 5
157 49 165 57 3 3 24 14 48 24 23 11 42 22 42 26 0 4 8 10 18 14 24 8 54 28
73 49 9 9 22 17 28 17 6 0 14 7 17 15 4 8 12 15 20 15 8 0 14 3 14 8 0 4 18
25 39 47 21 22 41 51 45 63 4 12 11 22 16 22 5 0 14 16 20 35 6 19 16 35 21
35 5 0 9 12 9 27 0 14 7 34 15 43 9 10 18 41 22 71 3 30 12 66 19 81 8 15 14
53 14 84 0 39 5 63 16 76 13 14 17 40 18 112 1 79 -2 97 -18 115 -17 19 -19
36 -18 147 1 90 5 133 15 148 8 12 20 59 26 106 6 46 16 89 21 94 6 6 10 29
10 51 0 23 7 64 15 91 8 27 15 61 15 76 0 15 4 37 9 50 22 58 33 103 41 165 5
38 14 88 20 113 6 25 13 63 16 85 3 22 12 57 20 78 8 20 14 60 14 87 0 27 5
52 10 55 6 3 10 15 10 26 0 30 26 22 40 -12 23 -54 100 -125 145 -134 78 -15
188 -2 217 27 10 10 27 18 38 18 11 0 20 7 20 15 0 8 5 15 11 15 17 0 56 49
105 131 6 10 22 33 37 50 15 18 30 49 33 68 3 20 12 46 20 58 19 31 19 235 0
271 -31 61 -49 168 -54 329 -4 150 -3 167 17 212 11 27 21 63 21 79 0 16 7 35
15 42 9 8 15 30 15 60 0 33 5 50 15 54 8 3 18 23 21 45 4 23 13 46 20 52 8 6
14 29 14 50 0 22 4 39 9 39 5 0 17 25 25 54 9 30 21 58 26 61 6 3 10 19 10 34
0 16 7 34 15 41 8 7 15 22 15 34 0 11 11 43 25 70 14 27 25 55 25 63 0 7 4 13
9 13 4 0 11 22 14 50 3 27 13 65 22 83 9 19 20 58 26 88 5 30 15 79 20 109 14
71 7 282 -9 288 -7 2 -12 14 -12 27 0 13 -6 30 -12 37 -7 7 -29 34 -48 60 -19
26 -39 48 -45 48 -5 0 -22 10 -37 23 -14 12 -37 30 -51 40 -31 23 -43 109 -21
144 16 25 19 133 4 133 -16 0 -12 90 5 106 11 12 15 39 15 108 0 71 -4 97 -15
106 -8 7 -15 28 -15 47 0 21 -6 36 -15 39 -8 4 -15 14 -15 23 0 10 -9 27 -20
39 -11 12 -20 26 -20 32 0 5 -6 10 -13 10 -8 0 -22 9 -32 20 -10 11 -26 20
-36 20 -9 0 -19 4 -21 8 -6 16 -116 62 -146 62 -17 0 -35 6 -39 14 -5 8 -37
15 -86 19 -43 4 -88 12 -100 19 -14 8 -80 14 -178 16 -129 3 -167 1 -215 -14
-33 -9 -106 -21 -164 -26 -58 -4 -124 -10 -146 -14 -26 -4 -44 -2 -48 5 -4 6
-33 11 -64 11 -35 0 -74 8 -101 20 -24 11 -51 20 -62 20 -10 0 -20 4 -23 9 -3
5 -25 19 -48 31 -24 12 -52 30 -63 39 -11 9 -33 23 -48 29 -15 7 -30 19 -33
27 -4 8 -13 15 -21 15 -8 0 -21 7 -29 15 -9 8 -26 15 -39 15 -13 0 -27 5 -30
10 -8 12 -242 14 -249 1z m254 -157 c36 -14 83 -41 105 -59 51 -41 119 -76
241 -121 152 -57 292 -68 429 -34 166 42 548 45 628 5 17 -8 40 -15 52 -15 32
0 153 -63 202 -105 70 -60 83 -100 83 -256 0 -103 -3 -140 -15 -155 -9 -12
-14 -43 -15 -89 0 -52 -5 -78 -20 -102 -21 -35 -38 -40 -72 -22 -13 7 -79 11
-177 10 -216 -1 -266 18 -443 170 -34 29 -39 31 -67 19 -52 -21 -48 -64 13
-132 83 -93 219 -136 466 -149 91 -5 190 -13 220 -18 116 -19 224 -83 283
-168 33 -48 48 -126 48 -243 -1 -74 -7 -105 -51 -240 -28 -85 -55 -173 -61
-195 -6 -21 -19 -57 -30 -80 -10 -22 -32 -80 -48 -130 -17 -49 -46 -126 -65
-170 -19 -44 -42 -113 -50 -154 -9 -40 -20 -78 -25 -85 -16 -19 -55 -212 -71
-353 -8 -65 -8 -108 -1 -149 6 -32 11 -85 11 -118 0 -34 9 -90 20 -124 36
-116 18 -244 -49 -342 -44 -65 -120 -120 -165 -120 -38 0 -91 37 -119 81 -31
49 -36 237 -9 349 63 261 85 442 86 705 1 214 -1 235 -22 300 -46 141 -110
195 -229 195 -65 0 -72 -2 -110 -35 -46 -39 -58 -75 -72 -215 -14 -142 -41
-272 -67 -327 -27 -56 -84 -112 -148 -145 -59 -30 -126 -21 -172 23 -72 69
-91 148 -64 260 6 24 12 51 15 60 2 10 16 36 32 59 15 24 33 51 39 61 6 11 18
27 26 36 9 10 43 72 77 137 49 95 62 131 65 175 5 81 -1 103 -47 153 -50 55
-75 61 -237 59 -91 0 -119 3 -140 16 -40 27 -64 64 -66 103 -1 20 -9 57 -18
83 -9 26 -16 56 -16 67 0 49 -92 194 -140 220 -39 21 -152 36 -346 45 -82 3
-113 10 -168 33 -64 28 -169 96 -262 172 -75 61 -134 104 -188 135 -64 38 -67
58 -26 132 40 70 52 160 26 182 -13 11 -26 12 -53 5 -37 -9 -42 -17 -57 -84
-9 -42 -86 -162 -140 -219 -61 -63 -98 -82 -172 -82 -45 -1 -65 5 -110 32 -61
37 -113 91 -141 148 -22 43 -32 265 -14 309 6 15 15 63 20 107 11 100 41 157
130 245 71 70 137 103 231 116 48 6 200 -10 230 -25 30 -16 118 -30 245 -41
232 -21 279 -28 339 -49 81 -29 102 -44 137 -99 32 -51 36 -83 14 -126 -19
-37 -19 -71 1 -90 18 -19 16 -19 48 -6 14 5 26 15 26 21 0 6 9 22 20 36 29 38
26 101 -9 176 -33 69 -51 92 -99 126 -52 36 -42 67 33 108 53 29 67 32 120 28
33 -2 89 -16 125 -31z m-900 -1118 c19 -18 54 -45 78 -60 24 -15 45 -33 48
-41 5 -13 73 -57 151 -98 49 -26 60 -56 44 -125 -7 -31 -21 -100 -31 -152 -10
-52 -27 -120 -38 -150 -12 -30 -24 -72 -27 -92 -3 -21 -17 -51 -31 -68 -37
-44 -82 -42 -135 8 -22 20 -63 58 -91 84 -28 26 -58 50 -67 53 -9 3 -29 23
-46 44 -16 21 -51 53 -77 72 l-48 34 0 77 c0 43 7 97 15 120 8 24 21 81 29
128 8 47 20 101 26 120 5 19 10 47 10 63 0 16 10 38 25 52 l24 25 53 -31 c29
-17 69 -45 88 -63z m-930 -222 c172 -34 236 -43 291 -42 59 1 111 -20 132 -53
14 -22 -40 -100 -101 -144 -37 -27 -56 -34 -92 -34 -54 0 -156 21 -189 38 -71
38 -390 32 -441 -9 -119 -95 -132 -102 -147 -88 -12 13 -12 20 2 59 12 32 44
70 113 137 152 145 243 174 432 136z m1603 -80 c103 -2 155 -8 175 -18 42 -21
79 -83 92 -151 23 -125 53 -231 70 -245 9 -9 31 -35 48 -59 41 -57 45 -122 8
-156 -13 -12 -25 -28 -28 -35 -6 -18 -38 -5 -44 18 -3 9 -15 22 -27 28 -72 37
-92 49 -110 67 -19 19 -28 20 -202 13 -100 -4 -196 -11 -214 -16 -19 -5 -31
-5 -31 1 0 5 -7 9 -16 9 -8 0 -31 17 -50 38 -28 30 -34 43 -30 67 3 17 9 53
14 82 4 28 13 57 18 65 6 7 16 51 23 98 16 114 38 187 59 200 9 6 35 8 57 4
22 -3 106 -8 188 -10z m-1523 -424 c11 -6 47 -13 82 -17 63 -6 85 -19 107 -60
14 -27 14 -80 1 -88 -5 -3 -10 -32 -10 -63 -1 -31 -7 -68 -15 -82 -8 -14 -14
-44 -15 -66 0 -23 -9 -61 -20 -85 -12 -27 -20 -66 -20 -100 0 -33 -6 -63 -15
-75 -9 -12 -14 -43 -15 -88 0 -47 -5 -75 -15 -86 -8 -9 -17 -47 -21 -88 -4
-41 -13 -77 -20 -83 -9 -8 -14 -34 -14 -77 0 -43 -5 -71 -14 -81 -8 -9 -18
-48 -22 -86 -3 -39 -12 -83 -19 -100 -7 -16 -15 -56 -18 -87 -3 -32 -9 -63
-14 -70 -4 -7 -16 -56 -25 -108 -30 -167 -42 -225 -45 -229 -5 -6 -56 21 -73
39 -8 9 -31 26 -50 38 -20 11 -47 30 -59 42 -13 11 -29 20 -35 20 -7 0 -18 9
-26 20 -8 11 -20 20 -26 20 -7 0 -14 7 -18 15 -3 8 -10 15 -16 15 -10 0 -19 7
-67 50 -13 11 -30 20 -38 20 -8 0 -15 7 -15 15 0 8 -6 15 -12 15 -7 0 -23 15
-35 33 -18 26 -23 47 -23 97 0 72 18 190 31 205 5 5 9 37 9 71 0 34 7 78 15
97 8 20 15 59 15 86 0 27 4 52 8 55 5 3 14 31 21 63 7 32 19 70 27 85 8 14 14
40 14 57 0 18 6 42 14 54 8 12 17 38 21 57 4 19 13 45 21 57 8 12 14 33 14 46
0 14 6 30 14 36 8 7 17 27 20 45 4 19 13 39 21 46 8 7 15 21 15 31 0 17 42
106 63 134 4 5 26 36 50 69 23 32 58 66 77 77 39 20 139 26 170 9z m2273 -102
c18 -12 35 -27 40 -33 13 -18 -2 -66 -37 -115 -18 -26 -37 -56 -40 -68 -4 -12
-18 -35 -32 -51 -13 -16 -33 -49 -44 -74 -21 -47 -62 -82 -86 -73 -8 3 -19 16
-25 29 -9 20 -6 34 15 80 18 37 25 64 20 81 -3 14 -1 40 4 58 6 18 13 54 17
81 12 92 97 135 168 85z m-2950 -721 c-1 -33 -7 -64 -12 -71 -12 -14 -36 -109
-57 -221 -8 -44 -21 -100 -29 -125 -10 -29 -16 -94 -18 -176 -2 -128 -2 -131
26 -166 15 -20 27 -41 27 -45 0 -24 208 -187 410 -320 79 -52 140 -98 140
-105 0 -4 7 -8 15 -8 18 0 18 -4 1 -105 -16 -90 -41 -124 -77 -104 -11 6 -23
17 -26 25 -3 8 -22 23 -42 33 -20 11 -81 57 -135 103 -122 102 -179 146 -231
178 -60 36 -163 129 -171 153 -4 12 -16 35 -27 51 -19 26 -21 44 -21 190 0
133 4 176 22 246 12 47 29 135 38 195 9 61 20 115 24 120 9 11 23 52 55 158
18 58 18 58 54 55 l36 -3 -2 -58z m609 -2314 c44 -68 146 -163 228 -211 24
-15 53 -35 62 -44 10 -10 26 -18 36 -18 9 0 31 -9 47 -21 51 -34 138 -72 335
-142 86 -31 266 -76 360 -91 52 -8 109 -20 125 -26 27 -11 83 -17 350 -36 118
-8 401 31 484 67 24 10 49 19 56 19 30 0 109 43 196 106 108 78 123 93 150
153 19 43 20 44 34 24 12 -16 13 -39 8 -98 -7 -86 -31 -130 -100 -181 -21 -16
-41 -33 -44 -37 -7 -10 -41 -30 -86 -52 -18 -8 -53 -28 -78 -44 -25 -16 -62
-32 -83 -36 -20 -4 -41 -10 -47 -14 -21 -16 -110 -41 -203 -56 -106 -17 -142
-29 -142 -46 0 -7 36 -10 118 -7 104 3 123 6 168 30 99 52 227 69 275 37 25
-17 -105 -124 -179 -148 -34 -12 -69 -21 -78 -21 -8 0 -25 -6 -37 -14 -21 -14
-187 -44 -292 -53 -99 -9 -372 -2 -450 12 -44 7 -116 17 -160 21 -55 4 -118
20 -200 49 -66 23 -183 61 -260 85 -77 23 -154 51 -171 61 -17 10 -38 19 -45
19 -8 0 -44 21 -80 47 -36 27 -78 55 -94 63 -130 66 -375 318 -375 385 0 21
28 38 52 31 13 -3 37 -26 53 -52 53 -81 158 -140 181 -102 4 6 3 13 -4 16 -21
7 -120 138 -138 182 -9 25 -23 52 -30 60 -7 9 -19 39 -25 67 -10 42 -10 55 1
68 22 26 38 17 82 -52z"/>
</g>
</svg>
